<?xml version="1.0"?>
<!DOCTYPE svg PUBLIC "-//W3C//DTD SVG 1.1//EN"
    "http://www.w3.org/Graphics/SVG/1.1/DTD/svg11.dtd">

<svg width="785" height="440" xmlns="http://www.w3.org/2000/svg">
    <style type="text/css"><![CDATA[
    .white {fill: white;}
    .gray {fill: #ddd;}
    text {
       stroke: none;
       text-anchor: middle;
       dominant-baseline: central;
       font-family: sans-serif;
       font-size: 16pt;
       }
    ]]></style>

    <g style="stroke:black; stroke-width: 2;">
   <line x1="165" y1="30" x2="75" y2="100"/>
   <line x1="165" y1="30" x2="255" y2="100"/>
   <line x1="570" y1="30" x2="480" y2="100"/>
   <line x1="570" y1="30" x2="660" y2="100"/>
   <line x1="75" y1="100" x2="30" y2="170"/>
   <line x1="75" y1="100" x2="120" y2="170"/>
   <line x1="255" y1="100" x2="225" y2="170"/>
   <line x1="255" y1="100" x2="285" y2="170"/>
   <line x1="480" y1="100" x2="435" y2="170"/>
   <line x1="480" y1="100" x2="525" y2="170"/>
   <line x1="660" y1="100" x2="630" y2="170"/>
   <line x1="660" y1="100" x2="690" y2="170"/>
   <line x1="120" y1="170" x2="90" y2="240"/>
   <line x1="120" y1="170" x2="150" y2="240"/>
   <line x1="525" y1="170" x2="495" y2="240"/>
   <line x1="525" y1="170" x2="555" y2="240"/>
   <line x1="90" y1="240" x2="60" y2="310"/>
   <line x1="495" y1="240" x2="465" y2="310"/>
   <line x1="60" y1="310" x2="105" y2="380"/>
<circle class="gray" cx="165" cy="30" r="20"/>
<text x="165" y="30">17</text>
<circle class="gray" cx="570" cy="30" r="20"/>
<text x="570" y="30">17</text>
<circle class="white" cx="75" cy="100" r="20"/>
<text x="75" y="100">5</text>
<circle class="gray" cx="255" cy="100" r="20"/>
<text x="255" y="100">35</text>
<circle class="gray" cx="480" cy="100" r="20"/>
<text x="480" y="100">7</text>
<circle class="gray" cx="660" cy="100" r="20"/>
<text x="660" y="100">35</text>
<circle class="gray" cx="30" cy="170" r="20"/>
<text x="30" y="170">2</text>
<circle class="gray" cx="120" cy="170" r="20"/>
<text x="120" y="170">11</text>
<circle class="gray" cx="225" cy="170" r="20"/>
<text x="225" y="170">29</text>
<circle class="gray" cx="285" cy="170" r="20"/>
<text x="285" y="170">38</text>
<circle class="gray" cx="435" cy="170" r="20"/>
<text x="435" y="170">2</text>
<circle class="gray" cx="525" cy="170" r="20"/>
<text x="525" y="170">11</text>
<circle class="gray" cx="630" cy="170" r="20"/>
<text x="630" y="170">29</text>
<circle class="gray" cx="690" cy="170" r="20"/>
<text x="690" y="170">38</text>
<circle class="gray" cx="90" cy="240" r="20"/>
<text x="90" y="240">9</text>
<circle class="gray" cx="150" cy="240" r="20"/>
<text x="150" y="240">16</text>
<circle class="gray" cx="495" cy="240" r="20"/>
<text x="495" y="240">9</text>
<circle class="gray" cx="555" cy="240" r="20"/>
<text x="555" y="240">16</text>
<circle class="gray" cx="60" cy="310" r="20"/>
<text x="60" y="310">7</text>
<circle class="gray" cx="465" cy="310" r="20"/>
<text x="465" y="310">8</text>
<circle class="gray" cx="105" cy="380" r="20"/>
<text x="105" y="380">8</text>
</g>
</svg>
