<?xml version="1.0"?>
<!DOCTYPE svg PUBLIC "-//W3C//DTD SVG 1.1//EN"
    "http://www.w3.org/Graphics/SVG/1.1/DTD/svg11.dtd">

<svg width="500" height="230" xmlns="http://www.w3.org/2000/svg">
    <style type="text/css"><![CDATA[
    .white {fill: white;}
    .gray {fill: #ddd;}
    text {
       stroke: none;
       text-anchor: middle;
       dominant-baseline: central;
       font-family: sans-serif;
       font-size: 16pt;
       }
    ]]></style>

    <g style="stroke:black; stroke-width: 2;">
   <line x1="120" y1="30" x2="75" y2="100"/>
   <line x1="240" y1="30" x2="285" y2="100"/>
   <line x1="465" y1="30" x2="420" y2="100"/>
   <line x1="75" y1="100" x2="30" y2="170"/>
   <line x1="285" y1="100" x2="240" y2="170"/>
   <line x1="420" y1="100" x2="375" y2="170"/>
<circle class="gray" cx="120" cy="30" r="20"/>
<text x="120" y="30">10</text>
<circle class="gray" cx="240" cy="30" r="20"/>
<text x="240" y="30">10</text>
<circle class="white" cx="465" cy="30" r="20"/>
<text x="465" y="30">10</text>
<circle class="white" cx="75" cy="100" r="20"/>
<text x="75" y="100">8</text>
<circle class="white" cx="285" cy="100" r="20"/>
<text x="285" y="100">12</text>
<circle class="gray" cx="420" cy="100" r="20"/>
<text x="420" y="100">8</text>
<circle class="gray" cx="30" cy="170" r="20"/>
<text x="30" y="170">7</text>
<circle class="gray" cx="240" cy="170" r="20"/>
<text x="240" y="170">7</text>
<circle class="gray" cx="375" cy="170" r="20"/>
<text x="375" y="170">7</text>
</g>
</svg>
